<svg xmlns="http://www.w3.org/2000/svg" width="100" height="100" viewBox="0 0 100 100" fill="none">
<path d="M88.8125 47.8382C88.7867 47.3605 88.5926 46.9075 88.2647 46.5592C87.9368 46.211 87.4962 45.9901 87.021 45.9356L82.1133 45.1413C81.8926 45.105 81.6894 44.9985 81.5342 44.8374C81.379 44.6763 81.28 44.4693 81.252 44.2474C81.1582 43.6445 81.0606 43.0186 80.9266 42.4252C80.8834 42.2094 80.9087 41.9855 80.999 41.7847C81.0892 41.584 81.2399 41.4164 81.43 41.3055L85.7902 38.8842C86.2232 38.6635 86.5599 38.2914 86.7364 37.8386C86.9128 37.3858 86.9167 36.8839 86.7473 36.4284L85.9912 34.3421C85.8254 33.8851 85.4968 33.5053 85.0685 33.2754C84.6401 33.0455 84.142 32.9816 83.6694 33.0961L78.779 34.0531C78.5603 34.0922 78.3349 34.0612 78.1349 33.9646C77.9349 33.8681 77.7704 33.7108 77.665 33.5152C77.3798 32.9812 77.0698 32.4376 76.7463 31.9036C76.6288 31.7133 76.5738 31.4911 76.5889 31.268C76.604 31.0449 76.6884 30.8321 76.8305 30.6595L80.0844 26.9002C80.4149 26.5454 80.6048 26.0822 80.6186 25.5974C80.6323 25.1127 80.4689 24.6395 80.1591 24.2665L78.7388 22.5611C78.4299 22.1867 77.993 21.9404 77.5128 21.8697C77.0326 21.7989 76.5433 21.9089 76.1395 22.1783L71.8578 24.7488C71.6679 24.8626 71.4465 24.9123 71.2263 24.8905C71.0061 24.8688 70.7987 24.7769 70.6347 24.6283C70.1619 24.2129 69.6777 23.8129 69.224 23.4434C69.0499 23.3061 68.9241 23.1167 68.8649 22.903C68.8057 22.6893 68.8162 22.4622 68.8948 22.2548L70.6672 17.5845C70.8602 17.1389 70.8829 16.6379 70.7308 16.1767C70.5787 15.7155 70.2625 15.3262 69.8423 15.0828L67.911 13.9554C67.4904 13.7129 66.9952 13.6341 66.5202 13.7341C66.0452 13.834 65.6237 14.1057 65.3366 14.4971L62.2071 18.4286C62.0945 18.5995 61.9259 18.7258 61.7303 18.7859C61.5347 18.846 61.3243 18.8361 61.1352 18.7578C61.0184 18.71 60.0308 18.3061 59.2632 18.0496C59.0527 17.981 58.8696 17.8468 58.7408 17.6667C58.612 17.4866 58.5442 17.27 58.5474 17.0486L58.622 12.0586C58.6487 11.5714 58.4968 11.0911 58.1949 10.7078C57.8929 10.3244 57.4616 10.0643 56.9817 9.9761L54.7901 9.59329C54.3126 9.51079 53.8213 9.60446 53.4077 9.85687C52.994 10.1093 52.6861 10.5033 52.541 10.9657L50.9141 15.7145C50.8402 15.9253 50.7007 16.1069 50.5161 16.2326C50.3314 16.3583 50.1114 16.4216 49.8882 16.4131H48.0219C47.8004 16.4176 47.5832 16.3522 47.401 16.2261C47.2189 16.0999 47.0812 15.9196 47.0075 15.7106L45.3882 10.9886C45.2457 10.5229 44.9384 10.125 44.5237 9.8696C44.109 9.61416 43.6154 9.51864 43.1353 9.60094L40.9399 9.98376C40.463 10.0713 40.0341 10.3288 39.7328 10.7087C39.4315 11.0885 39.2782 11.5648 39.3015 12.049L39.378 17.0562C39.3796 17.281 39.3085 17.5002 39.1753 17.6812C39.0422 17.8623 38.8542 17.9955 38.6392 18.0611C38.2009 18.2315 37.2496 18.5951 36.817 18.7559C36.4342 18.8937 36.0169 18.7425 35.6801 18.354L32.5678 14.5258C32.2823 14.132 31.8612 13.8577 31.3856 13.7556C30.91 13.6535 30.4135 13.7308 29.9915 13.9727L28.0659 15.0886C27.6411 15.3324 27.3215 15.7249 27.1689 16.1903C27.0162 16.6558 27.0412 17.1613 27.2391 17.6094L29.0096 22.2682C29.0868 22.476 29.097 22.7029 29.0386 22.9168C28.9802 23.1307 28.8563 23.3209 28.6842 23.4607C28.2191 23.8435 27.7425 24.2263 27.2678 24.6512C27.1048 24.7987 26.8989 24.8901 26.6802 24.9122C26.4615 24.9342 26.2415 24.8857 26.0523 24.7737L21.8203 22.1534C21.414 21.889 20.9251 21.7821 20.4455 21.8526C19.9659 21.923 19.5284 22.1661 19.2153 22.5362L17.8008 24.2378C17.4866 24.6083 17.3201 25.0816 17.3332 25.5672C17.3462 26.0528 17.538 26.5166 17.8716 26.8696L21.1409 30.625C21.2859 30.7942 21.3727 31.0057 21.3882 31.228C21.4037 31.4504 21.3472 31.6719 21.227 31.8596C20.8997 32.3802 20.5877 32.9276 20.3044 33.475C20.1984 33.672 20.0328 33.8303 19.8313 33.9272C19.6298 34.0242 19.4028 34.0549 19.1828 34.0148L14.3 33.0712C13.8272 32.9571 13.329 33.0211 12.9004 33.2509C12.4719 33.4807 12.1429 33.8603 11.9763 34.3172L11.2107 36.3997C11.0415 36.8558 11.0454 37.3581 11.2218 37.8114C11.3982 38.2647 11.7348 38.6376 12.1677 38.8593L16.528 41.2806C16.724 41.3888 16.8796 41.5579 16.9711 41.7623C17.0626 41.9667 17.0851 42.1954 17.0352 42.4137L16.9893 42.6568C16.8897 43.1908 16.7978 43.6961 16.7098 44.234C16.6794 44.4531 16.5804 44.6571 16.4271 44.8166C16.2737 44.9761 16.0739 45.083 15.8561 45.1221L10.9389 45.9165C10.458 45.9755 10.0151 46.2076 9.69279 46.5693C9.37049 46.931 9.1909 47.3977 9.18753 47.8822V50.0987C9.18473 50.585 9.36249 51.0551 9.68638 51.4179C10.0103 51.7807 10.4573 52.0104 10.9408 52.0625L15.8561 52.8549C16.077 52.8909 16.2803 52.9974 16.4356 53.1585C16.5909 53.3196 16.6897 53.5267 16.7175 53.7488C16.8112 54.3536 16.9089 54.9776 17.0428 55.571C17.086 55.7868 17.0607 56.0107 16.9705 56.2115C16.8802 56.4122 16.7295 56.5798 16.5394 56.6907L12.1811 59.1158C11.7482 59.3365 11.4114 59.7087 11.235 60.1615C11.0585 60.6143 11.0546 61.1161 11.2241 61.5716L11.9897 63.6579C12.1559 64.1147 12.4845 64.4942 12.9128 64.7241C13.3411 64.9539 13.839 65.0179 14.3115 64.904L19.2019 63.9565C19.4206 63.9168 19.6463 63.9475 19.8464 64.0441C20.0466 64.1408 20.211 64.2984 20.3159 64.4944C20.603 65.0303 20.9112 65.572 21.2346 66.106C21.3527 66.2961 21.4081 66.5184 21.393 66.7416C21.3778 66.9649 21.293 67.1777 21.1504 67.3501L17.8965 71.1074C17.5621 71.4596 17.3678 71.9218 17.3502 72.4072C17.3326 72.8925 17.4928 73.3676 17.8008 73.7431L19.2191 75.4485C19.5278 75.8232 19.9647 76.0699 20.445 76.1406C20.9254 76.2113 21.4148 76.1011 21.8184 75.8313L26.1002 73.2608C26.29 73.147 26.5114 73.0973 26.7316 73.119C26.9519 73.1408 27.1593 73.2327 27.3233 73.3813C27.798 73.7967 28.2803 74.1967 28.7339 74.5661C28.9079 74.7037 29.0337 74.8929 29.0932 75.1065C29.1527 75.3201 29.1429 75.5471 29.0651 75.7548L27.2907 80.4251C27.0977 80.8707 27.0751 81.3717 27.2272 81.8329C27.3793 82.2941 27.6955 82.6834 28.1157 82.9268L30.0508 84.0446C30.4711 84.2873 30.9662 84.3664 31.4412 84.2668C31.9162 84.1672 32.3378 83.8959 32.6252 83.5048L35.793 79.6097C36.061 79.2786 36.4821 79.1312 36.7941 79.2575C37.4601 79.5331 37.9061 79.6882 38.6966 79.9523C38.9072 80.0211 39.0903 80.1553 39.2194 80.3353C39.3485 80.5154 39.4168 80.7319 39.4144 80.9534L39.3378 85.9395C39.312 86.4266 39.4642 86.9064 39.766 87.2896C40.0678 87.6727 40.4986 87.933 40.9782 88.022L43.1698 88.4048C43.6474 88.4882 44.139 88.3948 44.5528 88.1423C44.9667 87.8898 45.2745 87.4953 45.4188 87.0324L47.0458 82.2913C47.1194 82.0803 47.2588 81.8986 47.4435 81.7728C47.6282 81.647 47.8484 81.5839 48.0717 81.5927H49.9379C50.1595 81.5878 50.3769 81.6532 50.5591 81.7793C50.7413 81.9055 50.879 82.086 50.9524 82.2951L52.5736 87.0171C52.6992 87.427 52.9528 87.7859 53.2973 88.0412C53.6417 88.2964 54.0589 88.4346 54.4877 88.4354C54.6019 88.4357 54.716 88.4254 54.8284 88.4048L57.0238 88.022C57.5007 87.9345 57.9296 87.6769 58.2309 87.2971C58.5322 86.9173 58.6855 86.441 58.6622 85.9567L58.5857 80.9495C58.5842 80.7289 58.6529 80.5136 58.782 80.3346C58.911 80.1557 59.0936 80.0225 59.3034 79.9542C60.0384 79.7073 60.5552 79.5083 61.0089 79.3322L61.1237 79.2881C61.7171 79.0833 62.0042 79.3322 62.1707 79.5389L65.3768 83.4876C65.6641 83.8782 66.0853 84.1492 66.5599 84.2487C67.0345 84.3483 67.5291 84.2695 67.9493 84.0274L69.8767 82.9115C70.2983 82.6679 70.6155 82.2777 70.7676 81.8152C70.9198 81.3527 70.8963 80.8503 70.7017 80.404L68.9331 75.7452C68.855 75.5376 68.8443 75.3108 68.9023 75.0968C68.9604 74.8828 69.0843 74.6924 69.2566 74.5527C69.7217 74.1699 70.1983 73.7871 70.673 73.3622C70.837 73.2143 71.0442 73.123 71.264 73.1016C71.4838 73.0802 71.7047 73.13 71.8941 73.2435L76.1797 75.8084C76.586 76.0731 77.0749 76.1803 77.5547 76.1098C78.0344 76.0393 78.4719 75.796 78.7848 75.4256L80.2012 73.722C80.5154 73.3516 80.6819 72.8782 80.6688 72.3926C80.6557 71.907 80.464 71.4433 80.1303 71.0902L76.865 67.3252C76.7199 67.156 76.6332 66.9446 76.6176 66.7222C76.6021 66.4998 76.6586 66.2784 76.7788 66.0907C77.1061 65.572 77.4181 65.0245 77.7014 64.4752C77.8078 64.2787 77.9735 64.1207 78.1749 64.0238C78.3763 63.9269 78.6031 63.896 78.823 63.9354L83.7001 64.8867C84.1728 65.0008 84.671 64.9368 85.0996 64.707C85.5282 64.4772 85.8572 64.0976 86.0237 63.6407L86.7798 61.5582C86.9489 61.1024 86.9449 60.6004 86.7685 60.1474C86.5921 59.6944 86.2556 59.3219 85.8228 59.1005L81.4587 56.6754C81.2654 56.5661 81.1124 56.3974 81.0224 56.1944C80.9324 55.9913 80.9102 55.7647 80.9591 55.548L81.0051 55.3049C81.1046 54.7709 81.1965 54.2656 81.2845 53.7277C81.315 53.5086 81.4139 53.3047 81.5673 53.1452C81.7206 52.9856 81.9204 52.8787 82.1382 52.8396L87.0554 52.0472C87.5375 51.989 87.9818 51.7571 88.3053 51.3949C88.6287 51.0328 88.8091 50.5651 88.8125 50.0795V47.8382ZM34.7498 65.8304C34.5113 66.2451 34.1778 66.5974 33.7766 66.8582C33.3755 67.1189 32.9182 67.2808 32.4424 67.3305C31.9665 67.3802 31.4856 67.3163 31.0393 67.144C30.5929 66.9718 30.1938 66.696 29.8747 66.3395C25.5626 61.5716 23.1817 55.3681 23.1966 48.9395C23.2114 42.5109 25.621 36.3185 29.9551 31.5706C30.2758 31.2142 30.6767 30.9391 31.1246 30.768C31.5725 30.5969 32.0546 30.5347 32.5312 30.5865C33.0079 30.6383 33.4654 30.8025 33.8661 31.0658C34.2668 31.3291 34.5992 31.6838 34.836 32.1008L43.5737 47.4802C43.836 47.9389 43.9741 48.4582 43.9741 48.9866C43.9741 49.515 43.836 50.0343 43.5737 50.493L34.7498 65.8304ZM49 74.8609C47.1786 74.8614 45.3622 74.6689 43.5813 74.2867C43.1174 74.183 42.6844 73.9715 42.3174 73.6693C41.9505 73.3671 41.6599 72.9827 41.4692 72.5473C41.2785 72.1118 41.193 71.6376 41.2198 71.163C41.2466 70.6883 41.3848 70.2267 41.6232 69.8154L50.4279 54.5029C50.6927 54.0415 51.0747 53.6582 51.5351 53.3917C51.9956 53.1252 52.5182 52.9849 53.0502 52.9851H70.6864C71.1614 52.9843 71.63 53.0955 72.0541 53.3096C72.4781 53.5237 72.8458 53.8347 73.1273 54.2174C73.4088 54.6001 73.5961 55.0438 73.6742 55.5124C73.7523 55.981 73.7188 56.4614 73.5766 56.9147C70.2289 67.3118 60.4844 74.8609 49 74.8609ZM50.4375 43.4894L41.7266 28.1501C41.4905 27.7382 41.3547 27.2765 41.33 26.8024C41.3054 26.3283 41.3927 25.855 41.5848 25.4209C41.7769 24.9867 42.0685 24.6039 42.4359 24.3032C42.8034 24.0026 43.2364 23.7927 43.7 23.6904C45.4427 23.3231 47.219 23.1383 49 23.1391C60.4844 23.1391 70.2289 30.6882 73.5709 41.0911C73.7131 41.5444 73.7465 42.0248 73.6684 42.4934C73.5904 42.962 73.403 43.4056 73.1216 43.7883C72.8401 44.171 72.4724 44.482 72.0483 44.6961C71.6242 44.9102 71.1557 45.0214 70.6806 45.0207H53.0712C52.5359 45.0217 52.0099 44.8805 51.5472 44.6114C51.0844 44.3424 50.7014 43.9552 50.4375 43.4894Z" fill="url(#paint0_linear_7_234)"/>
<defs>
<linearGradient id="paint0_linear_7_234" x1="49" y1="9.56409" x2="49" y2="88.4354" gradientUnits="userSpaceOnUse">
<stop stop-color="#E52320"/>
<stop offset="1" stop-color="#FFCC03"/>
</linearGradient>
</defs>
</svg>