<svg xmlns="http://www.w3.org/2000/svg" width="207" height="60" viewBox="0 0 207 60" fill="none">
  <g clip-path="url(#clip0_2_171)">
    <path d="M19.4923 39.3711C19.9398 39.3711 20.3717 39.3344 20.8088 39.3029C12.1189 38.6216 5.27113 31.2998 5.27113 22.348C5.27113 12.9455 12.8162 5.32495 22.1252 5.32495C28.0676 5.32495 33.2867 8.4434 36.2839 13.1342L36.2059 12.7987C33.1722 5.93291 27.4276 0 19.4923 0C8.72625 0 0 8.81551 0 19.6855C0 30.5556 8.72625 39.3711 19.4923 39.3711Z" fill="url(#paint0_linear_2_171)"/>
    <path d="M16.7968 20.6237C16.3493 20.6237 15.9174 20.6604 15.4803 20.6918C24.1701 21.3732 31.0179 28.695 31.0179 37.6467C31.0179 47.0493 23.4729 54.6698 14.1638 54.6698C8.22144 54.6698 3.00234 51.5514 0.00512695 46.8606L0.0831793 47.196C3.12722 54.0671 8.87187 60 16.802 60C27.568 60 36.2943 51.1845 36.2943 40.3145C36.2943 29.4444 27.5628 20.6237 16.7968 20.6237Z" fill="url(#paint1_linear_2_171)"/>
    <path d="M62.6031 40.8019L59.3041 39.4549C57.0457 38.5482 55.3494 37.9665 55.3494 36.3679C55.3494 34.8742 56.6347 34.0304 58.6536 34.0304C60.6986 34.0304 62.3221 34.7537 64.0288 36.0744L66.9844 32.3585C64.7521 30.1205 61.6352 28.9413 58.6536 28.9413C53.2628 28.9413 49.4278 32.3899 49.4278 36.7138C49.4278 40.5031 51.9723 42.7254 54.6573 43.826L58.024 45.2725C60.2875 46.2107 61.7601 46.7348 61.7601 48.3753C61.7601 49.9266 60.5633 50.8962 58.1177 50.8962C55.9894 50.8962 53.601 49.7851 51.759 48.1709L48.3923 52.2117C51.0357 54.7013 54.6157 55.9853 57.9824 55.9853C64.1537 55.9853 67.7389 52.2327 67.7389 47.9036C67.7389 44.2086 65.7668 42.0912 62.6031 40.8019Z" fill="#E42320"/>
    <path d="M76.9802 29.4182L68.8472 55.4979H74.8312L76.4287 49.2872H84.3223L85.9146 55.4979H92.112L83.9841 29.4182H76.9802ZM77.6098 44.7065L78.2343 42.2904C78.9523 39.6803 79.6444 36.63 80.274 33.8784H80.4353C81.1274 36.5985 81.8195 39.6803 82.5375 42.2904L83.1568 44.7065H77.6098Z" fill="#E42320"/>
    <path d="M105.568 50.891C101.785 50.891 99.3085 47.7778 99.3085 42.4109C99.3085 37.1803 102.113 34.0304 105.662 34.0304C107.535 34.0304 108.935 34.8847 110.236 36.1059L113.321 32.327C111.578 30.5293 108.878 28.9413 105.532 28.9413C98.9858 28.9413 93.3088 33.957 93.3088 42.6101C93.3088 51.3941 98.7933 55.9801 105.36 55.9801C108.711 55.9801 111.573 54.6751 113.722 52.1541L110.636 48.4486C109.372 49.8375 107.696 50.891 105.568 50.891Z" fill="#E42320"/>
    <path d="M122.48 29.4182L114.347 55.4979H120.331L121.928 49.2872H129.827L131.419 55.4979H137.611L129.478 29.4182H122.48ZM123.115 44.7065L123.734 42.2904C124.452 39.6803 125.144 36.63 125.774 33.8784H125.935C126.627 36.5985 127.319 39.6803 128.037 42.2904L128.656 44.7065H123.115Z" fill="#E42320"/>
    <path d="M154.84 38.6321C154.84 41.7086 155.314 45.3616 155.589 48.1185H155.428L152.868 42.3899L146.114 29.4182H140.114V55.5031H145.692V46.2421C145.692 43.1656 145.219 39.6751 144.943 36.7977H145.104L147.665 42.4948L154.419 55.4979H160.418V29.4182H154.84V38.6321Z" fill="#E42320"/>
    <path d="M184.588 29.4182H164.482V34.3658H171.606V55.5031H177.465V34.3658H184.588V29.4182Z" fill="#E42320"/>
    <path d="M200.808 55.4979H207.005L198.872 29.4182H191.868L183.735 55.4979H189.719L191.317 49.2872H199.21L200.808 55.4979ZM192.498 44.7065L193.117 42.2904C193.835 39.6803 194.527 36.63 195.157 33.8784H195.318C196.01 36.5985 196.702 39.6803 197.42 42.2904L198.039 44.7065H192.498Z" fill="#E42320"/>
    <path d="M48.0647 14.7275C48.0647 10.6709 50.4375 8.19706 53.6064 8.19706C55.1206 8.19706 56.3122 8.9413 57.0407 9.74843L56.1717 10.7914C55.5161 10.0839 54.6887 9.60692 53.6324 9.60692C51.27 9.60692 49.7038 11.5566 49.7038 14.6908C49.7038 17.8512 51.2024 19.8375 53.57 19.8375C54.7616 19.8375 55.667 19.3134 56.4683 18.4224L57.3373 19.4287C56.3487 20.5818 55.1258 21.2474 53.5023 21.2474C50.4011 21.2369 48.0647 18.8103 48.0647 14.7275ZM58.8255 16.3574C58.8255 13.2495 60.8445 11.457 63.1132 11.457C65.3819 11.457 67.4009 13.2495 67.4009 16.3574C67.4009 19.4444 65.3819 21.2369 63.1132 21.2369C60.8445 21.2369 58.8255 19.4444 58.8255 16.3574ZM65.7826 16.3574C65.7826 14.2243 64.7055 12.7673 63.1132 12.7673C61.5209 12.7673 60.4438 14.2191 60.4438 16.3574C60.4438 18.4906 61.5209 19.9214 63.1132 19.9214C64.7003 19.9214 65.7826 18.4958 65.7826 16.3574ZM69.8205 11.6876H71.1162L71.2462 13.0293H71.2983C72.1777 12.1541 73.1299 11.457 74.3996 11.457C76.3509 11.457 77.225 12.7254 77.225 15.0996V21.0063H75.6588V15.304C75.6588 13.5692 75.1385 12.8249 73.9156 12.8249C72.9686 12.8249 72.313 13.3124 71.3867 14.2558V21.0063H69.8205V11.6876ZM79.5406 16.3574C79.5406 13.2495 81.6272 11.457 83.9948 11.457C85.2072 11.457 86.0502 11.9602 86.7006 12.5524L85.8993 13.5954C85.3581 13.1027 84.7909 12.7725 84.0624 12.7725C82.3869 12.7725 81.1589 14.2243 81.1589 16.3627C81.1589 18.4958 82.3193 19.9266 84.0208 19.9266C84.869 19.9266 85.6183 19.5126 86.1907 18.999L86.8671 20.0577C86.0346 20.8019 84.9835 21.2421 83.8751 21.2421C81.4191 21.2369 79.5406 19.4444 79.5406 16.3574ZM87.8194 16.3574C87.8194 13.3228 89.8487 11.457 91.9769 11.457C94.3393 11.457 95.6714 13.1656 95.6714 15.8281C95.6714 16.1635 95.6454 16.4937 95.5986 16.7243H89.37C89.4845 18.7002 90.6813 19.979 92.4453 19.979C93.3351 19.979 94.0635 19.6908 94.7452 19.2348L95.3072 20.2673C94.4954 20.8019 93.512 21.2317 92.2527 21.2317C89.7811 21.2369 87.8194 19.4182 87.8194 16.3574ZM94.2873 15.5975C94.2873 13.7317 93.4547 12.7149 92.0082 12.7149C90.7073 12.7149 89.5469 13.7683 89.3544 15.5975H94.2873ZM95.6298 24.9214L95.9368 23.7159C96.1814 23.7945 96.4884 23.8784 96.8162 23.8784C97.7424 23.8784 97.9609 23.1813 97.9609 22.0493V11.6876H99.5272V22.0597C99.5272 23.9623 98.8351 25.1677 96.9879 25.1677C96.4207 25.1677 95.9524 25.0524 95.6298 24.9214ZM97.6696 8.75262C97.6696 8.13417 98.1431 7.73585 98.7519 7.73585C99.3607 7.73585 99.8342 8.13417 99.8342 8.75262C99.8342 9.3501 99.3607 9.76939 98.7519 9.76939C98.1431 9.76939 97.6696 9.34486 97.6696 8.75262ZM101.957 16.3574C101.957 13.2495 103.976 11.457 106.245 11.457C108.514 11.457 110.533 13.2495 110.533 16.3574C110.533 19.4444 108.514 21.2369 106.245 21.2369C103.976 21.2369 101.957 19.4444 101.957 16.3574ZM108.914 16.3574C108.914 14.2243 107.837 12.7673 106.245 12.7673C104.653 12.7673 103.576 14.2191 103.576 16.3574C103.576 18.4906 104.653 19.9214 106.245 19.9214C107.832 19.9214 108.914 18.4958 108.914 16.3574ZM119.956 8.42243C123.796 8.42243 125.857 10.6709 125.857 14.6698C125.857 18.6688 123.796 21.0063 120.029 21.0063H116.834V8.42243H119.956ZM119.836 19.6908C122.756 19.6908 124.213 17.8459 124.213 14.6646C124.213 11.4832 122.756 9.7327 119.836 9.7327H118.421V19.6908H119.836ZM127.699 16.3574C127.699 13.3228 129.728 11.457 131.856 11.457C134.219 11.457 135.551 13.1656 135.551 15.8281C135.551 16.1635 135.525 16.4937 135.478 16.7243H129.25C129.364 18.7002 130.561 19.979 132.325 19.979C133.215 19.979 133.943 19.6908 134.625 19.2348L135.187 20.2673C134.375 20.8019 133.392 21.2317 132.132 21.2317C129.661 21.2369 127.699 19.4182 127.699 16.3574ZM134.167 15.5975C134.167 13.7317 133.334 12.7149 131.888 12.7149C130.587 12.7149 129.426 13.7683 129.234 15.5975H134.167ZM137.82 19.1352V7.34801H139.386V19.2505C139.386 19.7327 139.594 19.9266 139.823 19.9266C139.911 19.9266 139.99 19.9266 140.166 19.8899L140.38 21.0954C140.156 21.174 139.891 21.2421 139.48 21.2421C138.304 21.2369 137.82 20.4822 137.82 19.1352ZM142.388 8.75262C142.388 8.13417 142.862 7.73585 143.471 7.73585C144.079 7.73585 144.553 8.13417 144.553 8.75262C144.553 9.3501 144.079 9.76939 143.471 9.76939C142.857 9.76939 142.388 9.34486 142.388 8.75262ZM142.675 11.6876H144.241V21.0063H142.675V11.6876ZM148.804 20.0419H148.752L148.607 21.0063H147.358V7.34801H148.924V11.0849L148.872 12.7568C149.72 12.0231 150.75 11.457 151.781 11.457C154.169 11.457 155.454 13.3281 155.454 16.2002C155.454 19.3815 153.56 21.2369 151.448 21.2369C150.579 21.2369 149.621 20.7914 148.804 20.0419ZM153.831 16.2212C153.831 14.1667 153.134 12.783 151.39 12.783C150.605 12.783 149.793 13.218 148.919 14.0566V18.9413C149.73 19.6488 150.558 19.9109 151.172 19.9109C152.702 19.9109 153.831 18.522 153.831 16.2212ZM157.187 16.3574C157.187 13.3228 159.216 11.457 161.345 11.457C163.707 11.457 165.039 13.1656 165.039 15.8281C165.039 16.1635 165.013 16.4937 164.966 16.7243H158.738C158.852 18.7002 160.049 19.979 161.813 19.979C162.703 19.979 163.431 19.6908 164.113 19.2348L164.675 20.2673C163.863 20.8019 162.88 21.2317 161.62 21.2317C159.149 21.2369 157.187 19.4182 157.187 16.3574ZM163.655 15.5975C163.655 13.7317 162.822 12.7149 161.376 12.7149C160.075 12.7149 158.915 13.7683 158.722 15.5975H163.655ZM167.313 11.6876H168.609L168.739 13.3857H168.791C169.436 12.2013 170.383 11.457 171.424 11.457C171.835 11.457 172.121 11.5094 172.412 11.6509L172.121 13.0346C171.804 12.935 171.596 12.8826 171.226 12.8826C170.446 12.8826 169.509 13.4486 168.885 15.0262V21.0115H167.318V11.6876H167.313ZM172.886 18.5849C172.886 16.5566 174.624 15.5398 178.568 15.1101C178.563 13.9099 178.168 12.7568 176.659 12.7568C175.587 12.7568 174.624 13.2652 173.901 13.7579L173.287 12.6782C174.14 12.1174 175.436 11.4623 176.919 11.4623C179.177 11.4623 180.134 12.9717 180.134 15.2935V21.0115H178.839L178.709 19.8952H178.657C177.777 20.6342 176.747 21.2369 175.597 21.2369C174.046 21.2369 172.886 20.2673 172.886 18.5849ZM178.568 18.7317V16.1426C175.467 16.5199 174.421 17.2851 174.421 18.4748C174.421 19.5335 175.134 19.9633 176.045 19.9633C176.934 19.9633 177.673 19.5283 178.568 18.7317ZM183.048 11.6876H184.344L184.474 13.0293H184.526C185.406 12.1541 186.358 11.457 187.627 11.457C189.579 11.457 190.453 12.7254 190.453 15.0996V21.0063H188.887V15.304C188.887 13.5692 188.366 12.8249 187.144 12.8249C186.197 12.8249 185.541 13.3124 184.615 14.2558V21.0063H183.048V11.6876ZM193.726 18.1237V12.9717H192.347V11.7767L193.794 11.6876L193.981 9.07233H195.287V11.6876H197.795V12.9717H195.287V18.1551C195.287 19.2925 195.651 19.9528 196.718 19.9528C197.046 19.9528 197.472 19.827 197.774 19.7013L198.076 20.891C197.556 21.0692 196.937 21.2369 196.359 21.2369C194.397 21.2369 193.726 19.979 193.726 18.1237ZM198.929 16.3574C198.929 13.3228 200.959 11.457 203.087 11.457C205.449 11.457 206.782 13.1656 206.782 15.8281C206.782 16.1635 206.756 16.4937 206.709 16.7243H200.48C200.595 18.7002 201.791 19.979 203.555 19.979C204.445 19.979 205.174 19.6908 205.855 19.2348L206.417 20.2673C205.606 20.8019 204.622 21.2317 203.363 21.2317C200.896 21.2369 198.929 19.4182 198.929 16.3574ZM205.397 15.5975C205.397 13.7317 204.565 12.7149 203.118 12.7149C201.817 12.7149 200.657 13.7683 200.464 15.5975H205.397Z" fill="#E07024"/>
  </g>
  <defs>
    <linearGradient id="paint0_linear_2_171" x1="30.6251" y1="0.928565" x2="5.41006" y2="31.7399" gradientUnits="userSpaceOnUse">
      <stop stop-color="#E42320"/>
      <stop offset="0.1176" stop-color="#E62D1E"/>
      <stop offset="0.32" stop-color="#EA4919"/>
      <stop offset="0.5827" stop-color="#F17612"/>
      <stop offset="0.8925" stop-color="#FBB407"/>
      <stop offset="1" stop-color="#FFCB03"/>
    </linearGradient>
    <linearGradient id="paint1_linear_2_171" x1="19.2473" y1="61.584" x2="17.2966" y2="29.6283" gradientUnits="userSpaceOnUse">
      <stop stop-color="#E42320"/>
      <stop offset="0.3313" stop-color="#EF6515"/>
      <stop offset="0.6433" stop-color="#F79C0B"/>
      <stop offset="0.8748" stop-color="#FDBE05"/>
      <stop offset="1" stop-color="#FFCB03"/>
    </linearGradient>
    <clipPath id="clip0_2_171">
      <rect width="207" height="60" fill="white"/>
    </clipPath>
  </defs>
</svg>