<svg xmlns="http://www.w3.org/2000/svg" width="100" height="100" viewBox="0 0 100  100" fill="none">
  <path d="M73.5625 38.5H49.5C47.312 38.5 45.2135 37.6308 43.6664 36.0836C42.1192 34.5365 41.25 32.438 41.25 30.25V6.1875C41.25 6.00516 41.1776 5.8303 41.0486 5.70136C40.9197 5.57243 40.7448 5.5 40.5625 5.5H24.75C21.8326 5.5 19.0347 6.65893 16.9718 8.72183C14.9089 10.7847 13.75 13.5826 13.75 16.5V71.5C13.75 74.4174 14.9089 77.2153 16.9718 79.2782C19.0347 81.3411 21.8326 82.5 24.75 82.5H63.25C66.1674 82.5 68.9653 81.3411 71.0282 79.2782C73.0911 77.2153 74.25 74.4174 74.25 71.5V39.1875C74.25 39.0052 74.1776 38.8303 74.0486 38.7014C73.9197 38.5724 73.7448 38.5 73.5625 38.5ZM57.75 66H30.25C29.5207 66 28.8212 65.7103 28.3055 65.1945C27.7897 64.6788 27.5 63.9793 27.5 63.25C27.5 62.5207 27.7897 61.8212 28.3055 61.3055C28.8212 60.7897 29.5207 60.5 30.25 60.5H57.75C58.4793 60.5 59.1788 60.7897 59.6945 61.3055C60.2103 61.8212 60.5 62.5207 60.5 63.25C60.5 63.9793 60.2103 64.6788 59.6945 65.1945C59.1788 65.7103 58.4793 66 57.75 66ZM57.75 52.25H30.25C29.5207 52.25 28.8212 51.9603 28.3055 51.4445C27.7897 50.9288 27.5 50.2293 27.5 49.5C27.5 48.7707 27.7897 48.0712 28.3055 47.5555C28.8212 47.0397 29.5207 46.75 30.25 46.75H57.75C58.4793 46.75 59.1788 47.0397 59.6945 47.5555C60.2103 48.0712 60.5 48.7707 60.5 49.5C60.5 50.2293 60.2103 50.9288 59.6945 51.4445C59.1788 51.9603 58.4793 52.25 57.75 52.25Z" fill="url(#paint0_linear_7_238)"/>
  <path d="M72.0534 32.4139L47.3361 7.69658C47.288 7.6488 47.2269 7.61629 47.1604 7.60315C47.0939 7.59 47.025 7.59681 46.9624 7.6227C46.8998 7.6486 46.8462 7.69244 46.8084 7.7487C46.7706 7.80497 46.7503 7.87115 46.75 7.93893V30.25C46.75 30.9794 47.0397 31.6788 47.5555 32.1946C48.0712 32.7103 48.7707 33 49.5 33H71.8111C71.8789 32.9997 71.9451 32.9794 72.0013 32.9416C72.0576 32.9038 72.1014 32.8503 72.1273 32.7876C72.1532 32.725 72.16 32.6561 72.1469 32.5896C72.1337 32.5231 72.1012 32.462 72.0534 32.4139Z" fill="url(#paint1_linear_7_238)"/>
  <defs>
    <linearGradient id="paint0_linear_7_238" x1="44" y1="5.5" x2="44" y2="82.5" gradientUnits="userSpaceOnUse">
      <stop stop-color="#E52320"/>
      <stop offset="1" stop-color="#FFCC03"/>
    </linearGradient>
    <linearGradient id="paint1_linear_7_238" x1="59.4517" y1="7.59662" x2="59.4517" y2="33" gradientUnits="userSpaceOnUse">
      <stop stop-color="#E52320"/>
      <stop offset="1" stop-color="#FFCC03"/>
    </linearGradient>
  </defs>
</svg>