<svg xmlns="http://www.w3.org/2000/svg" width="100" height="100" viewBox="0 0 105 100" fill="none">
<path d="M71.4998 54C67.1629 54 62.9694 52.0636 59.6873 48.5494C56.4958 45.1216 54.5467 40.5506 54.2029 35.6822C53.8359 30.4889 55.42 25.7133 58.6621 22.2328C61.9042 18.7523 66.4373 16.875 71.4998 16.875C76.5264 16.875 81.0721 18.7861 84.3037 22.2581C87.5669 25.7639 89.1552 30.5311 88.7882 35.6801C88.4359 40.5548 86.489 45.1237 83.3038 48.5473C80.0301 52.0636 75.8387 54 71.4998 54ZM99.3076 91.125H43.694C42.7998 91.1298 41.9165 90.9294 41.112 90.5392C40.3075 90.149 39.6032 89.5794 39.0534 88.8743C38.4701 88.1099 38.0673 87.2235 37.8752 86.2814C37.6831 85.3393 37.7065 84.366 37.9438 83.4342C39.7199 76.3024 44.1201 70.3877 50.6676 66.3314C56.4789 62.7328 63.8765 60.75 71.4998 60.75C79.2728 60.75 86.4763 62.6484 92.3214 66.2449C98.8837 70.2802 103.29 76.2286 105.058 83.4469C105.292 84.3793 105.313 85.3526 105.119 86.2942C104.924 87.2358 104.52 88.1214 103.936 88.8848C103.386 89.5867 102.684 90.1535 101.881 90.5418C101.079 90.9301 100.199 91.1296 99.3076 91.125ZM31.6326 54.8438C24.2097 54.8438 17.6833 47.9419 17.0779 39.4601C16.7784 35.1148 18.1326 31.0964 20.8748 28.1496C23.5874 25.2323 27.4138 23.625 31.6326 23.625C35.8513 23.625 39.6482 25.2408 42.3756 28.1749C45.1389 31.1449 46.4889 35.1548 46.1725 39.4643C45.5671 47.944 39.0428 54.8438 31.6326 54.8438ZM45.4827 61.4777C41.7723 59.6637 36.9566 58.7566 31.6347 58.7566C25.4205 58.7566 19.3855 60.3766 14.6394 63.3171C9.25843 66.6563 5.63874 71.5184 4.17695 77.3888C3.96303 78.2331 3.94279 79.1149 4.11776 79.9682C4.29273 80.8215 4.65837 81.6242 5.18734 82.3162C5.68926 82.9606 6.33227 83.4812 7.06693 83.8382C7.80159 84.1951 8.60832 84.3787 9.42507 84.375H32.8391C33.2343 84.3749 33.617 84.2362 33.9203 83.9829C34.2237 83.7297 34.4286 83.378 34.4992 82.9891C34.5224 82.8562 34.5519 82.7234 34.5857 82.5926C36.3744 75.408 40.5658 69.3373 46.7589 64.9118C46.9867 64.7476 47.1699 64.5292 47.2919 64.2763C47.414 64.0234 47.471 63.744 47.4578 63.4636C47.4446 63.1831 47.3616 62.9103 47.2164 62.67C47.0711 62.4297 46.8682 62.2294 46.626 62.0873C46.2948 61.8933 45.9151 61.6887 45.4827 61.4777Z" fill="url(#paint0_linear_7_236)"/>
<defs>
<linearGradient id="paint0_linear_7_236" x1="54.6253" y1="16.875" x2="54.6253" y2="91.1251" gradientUnits="userSpaceOnUse">
<stop stop-color="#E52320"/>
<stop offset="1" stop-color="#FFCC03"/>
</linearGradient>
</defs>
</svg>